<svg xmlns="http://www.w3.org/2000/svg" xmlns:xlink="http://www.w3.org/1999/xlink" width="100" zoomAndPan="magnify" viewBox="0 0 75 74.999997" height="100" preserveAspectRatio="xMidYMid meet" version="1.0"><defs><g/><clipPath id="74539309bf"><path d="M 24 12.804688 L 55.5 12.804688 L 55.5 61.554688 L 24 61.554688 Z M 24 12.804688 " clip-rule="nonzero"/></clipPath></defs><g fill="#37b182" fill-opacity="1"><g transform="translate(5.67127, 37.691094)"><g><path d="M 23.75 0 L 23.75 -6.046875 L 23.34375 -6.046875 C 23.34375 -0.203125 19.84375 -0.65625 19.84375 -0.65625 L 9.09375 -0.65625 L 9.25 -0.890625 L 24.078125 -26.90625 L 24.078125 -27.03125 L 2.234375 -27.03125 L 2.234375 -20.984375 L 2.640625 -20.984375 C 2.640625 -26.828125 6.125 -26.390625 6.125 -26.390625 L 16.640625 -26.390625 L 1.625 -0.125 L 1.625 0 Z M 23.75 0 "/></g></g></g><g fill="#37b182" fill-opacity="1"><g transform="translate(45.362983, 64.244792)"><g><path d="M 13.515625 -0.28125 C 13.515625 -0.28125 11.125 0 11.078125 -2.4375 L 11.078125 -13.078125 L 16.03125 -13.078125 C 16.6875 -13.03125 18.34375 -12.578125 18.34375 -9.140625 L 18.71875 -9.140625 L 18.71875 -17.703125 L 18.34375 -17.703125 C 18.34375 -14.25 16.6875 -13.796875 16 -13.71875 L 11.078125 -13.71875 L 11.078125 -26.390625 L 19.890625 -26.390625 C 19.890625 -26.390625 23.375 -26.828125 23.375 -20.984375 L 23.78125 -20.984375 L 23.78125 -27.03125 L 2.1875 -27.03125 L 2.1875 -26.703125 C 2.1875 -26.703125 4.625 -27.03125 4.625 -24.515625 L 4.625 -2.515625 C 4.625 0 2.1875 -0.28125 2.1875 -0.28125 L 2.1875 0 L 13.515625 0 Z M 13.515625 -0.28125 "/></g></g></g><g clip-path="url(#74539309bf)"><path fill="#37b182" d="M 41.511719 42.214844 C 41.710938 41.640625 41.894531 41.050781 42.0625 40.460938 L 43.8125 38.160156 C 43.820312 38.160156 43.828125 38.15625 43.835938 38.152344 C 43.859375 38.140625 46.25 36.898438 48.265625 35.304688 C 50.289062 33.710938 55.136719 28.769531 55.136719 26.019531 C 55.136719 25.957031 55.097656 25.898438 55.039062 25.875 C 54.980469 25.847656 54.914062 25.859375 54.867188 25.902344 C 54.855469 25.914062 53.519531 27.109375 51.015625 28.585938 C 48.480469 30.078125 47.050781 31.113281 45.78125 32.964844 C 44.550781 34.761719 43.597656 36.929688 43.597656 37.914062 L 42.289062 39.632812 C 43.230469 36.085938 43.707031 32.390625 43.929688 29.019531 L 44.988281 26.808594 C 45.386719 26.503906 47.808594 24.589844 48.9375 22.285156 C 50.097656 19.921875 51.054688 17.699219 51.519531 16.519531 C 51.78125 15.859375 51.785156 15.398438 51.53125 15.214844 C 51.285156 15.042969 50.902344 15.175781 50.390625 15.613281 C 50.285156 15.699219 50.164062 15.800781 50.03125 15.914062 C 48.855469 16.894531 46.886719 18.539062 46.265625 20.050781 C 45.570312 21.75 44.613281 25.761719 44.675781 26.710938 L 43.980469 28.171875 C 44.042969 27.019531 44.074219 25.910156 44.085938 24.867188 C 44.097656 24.835938 44.097656 24.800781 44.089844 24.773438 C 44.101562 23.429688 44.082031 22.199219 44.046875 21.121094 C 44.054688 21.109375 44.058594 21.097656 44.0625 21.085938 C 44.066406 21.074219 44.289062 20.359375 44.863281 19.410156 C 44.929688 19.390625 45.734375 19.109375 46.898438 18.136719 C 46.984375 18.203125 47.089844 18.242188 47.207031 18.242188 C 47.488281 18.242188 47.714844 18.011719 47.714844 17.726562 C 47.714844 17.441406 47.488281 17.207031 47.207031 17.207031 C 46.925781 17.207031 46.695312 17.441406 46.695312 17.726562 C 46.695312 17.777344 46.703125 17.824219 46.71875 17.871094 C 46.070312 18.414062 45.53125 18.742188 45.1875 18.917969 C 45.480469 18.492188 45.839844 18.039062 46.277344 17.597656 C 46.285156 17.589844 46.292969 17.582031 46.296875 17.574219 C 46.605469 17.550781 46.847656 17.335938 46.847656 17.066406 C 46.847656 16.785156 46.582031 16.554688 46.246094 16.554688 C 45.914062 16.554688 45.648438 16.785156 45.648438 17.066406 C 45.648438 17.246094 45.757812 17.40625 45.929688 17.496094 C 44.902344 18.574219 44.316406 19.660156 44.015625 20.332031 C 43.96875 19.320312 43.914062 18.484375 43.867188 17.863281 C 44.136719 17.601562 44.972656 16.597656 45.207031 14.078125 C 45.25 14.085938 45.296875 14.089844 45.34375 14.089844 C 45.710938 14.089844 46.011719 13.808594 46.011719 13.464844 C 46.011719 13.117188 45.710938 12.839844 45.34375 12.839844 C 44.976562 12.839844 44.675781 13.117188 44.675781 13.464844 C 44.675781 13.648438 44.765625 13.816406 44.898438 13.929688 C 44.722656 16.066406 44.097656 17.089844 43.777344 17.480469 C 43.761719 17.46875 43.746094 17.460938 43.726562 17.457031 C 43.527344 16.871094 43.132812 15.480469 43.304688 14.089844 C 43.640625 14.070312 43.910156 13.816406 43.910156 13.507812 C 43.910156 13.183594 43.621094 12.921875 43.269531 12.921875 C 42.914062 12.921875 42.625 13.183594 42.625 13.507812 C 42.625 13.738281 42.773438 13.9375 42.988281 14.03125 C 42.75 15.945312 43.503906 17.792969 43.539062 17.875 C 43.539062 17.878906 43.542969 17.886719 43.546875 17.890625 C 43.589844 18.398438 43.632812 19.058594 43.671875 19.839844 C 43.175781 19.339844 42.144531 18.109375 42.050781 16.5 C 42.359375 16.453125 42.59375 16.234375 42.59375 15.976562 C 42.59375 15.679688 42.289062 15.441406 41.917969 15.441406 C 41.546875 15.441406 41.242188 15.679688 41.242188 15.976562 C 41.242188 16.21875 41.449219 16.425781 41.730469 16.492188 C 41.839844 18.609375 43.417969 20.0625 43.695312 20.304688 C 43.75 21.488281 43.785156 22.914062 43.773438 24.496094 C 43.207031 24.050781 42.304688 23.207031 42.207031 22.554688 C 42.5 22.472656 42.710938 22.210938 42.710938 21.902344 C 42.710938 21.527344 42.390625 21.21875 41.996094 21.21875 C 41.597656 21.21875 41.277344 21.523438 41.277344 21.902344 C 41.277344 22.246094 41.542969 22.527344 41.886719 22.578125 C 42.011719 23.535156 43.417969 24.636719 43.769531 24.898438 C 43.738281 27.625 43.558594 30.804688 43.085938 34.058594 L 41.898438 30.675781 C 41.90625 29.933594 41.902344 26.25 41.136719 23.824219 C 40.605469 22.132812 39.066406 20.144531 38.433594 19.367188 C 38.226562 19.117188 36.394531 16.902344 35.839844 17.03125 C 35.765625 17.050781 35.707031 17.097656 35.671875 17.167969 C 35.554688 17.398438 35.734375 17.847656 36.152344 18.84375 C 36.675781 20.089844 37.390625 21.792969 37.449219 23.328125 C 37.496094 24.628906 37.625 26.316406 38.230469 27.789062 C 38.902344 29.445312 40.058594 30.507812 41.65625 30.949219 L 42.984375 34.734375 C 42.621094 37.050781 42.101562 39.394531 41.375 41.628906 C 41.203125 41.039062 40.898438 39.996094 40.503906 38.765625 C 40.632812 38.609375 41.207031 37.839844 41.578125 36.363281 C 41.859375 36.320312 42.078125 36.078125 42.078125 35.785156 C 42.078125 35.460938 41.816406 35.203125 41.488281 35.203125 C 41.160156 35.203125 40.894531 35.460938 40.894531 35.785156 C 40.894531 36.027344 41.042969 36.234375 41.253906 36.324219 C 40.980469 37.394531 40.59375 38.074219 40.382812 38.386719 C 40.128906 37.589844 39.839844 36.722656 39.535156 35.863281 C 39.691406 35.628906 40.179688 34.792969 40.214844 33.527344 C 40.496094 33.496094 40.707031 33.28125 40.707031 33.015625 C 40.707031 32.730469 40.453125 32.5 40.140625 32.5 C 39.828125 32.5 39.574219 32.730469 39.574219 33.015625 C 39.574219 33.222656 39.707031 33.402344 39.894531 33.484375 C 39.875 34.417969 39.582031 35.117188 39.390625 35.472656 C 39.234375 35.042969 39.074219 34.617188 38.914062 34.199219 C 39 34.011719 39.414062 33.070312 39.390625 31.90625 C 39.675781 31.855469 39.890625 31.613281 39.890625 31.324219 C 39.890625 31 39.613281 30.730469 39.273438 30.730469 C 38.933594 30.730469 38.65625 30.996094 38.65625 31.324219 C 38.65625 31.585938 38.832031 31.804688 39.074219 31.886719 C 39.074219 31.894531 39.074219 31.902344 39.074219 31.914062 C 39.089844 32.695312 38.886719 33.386719 38.746094 33.769531 C 38.242188 32.515625 37.726562 31.398438 37.246094 30.671875 C 37.402344 30.554688 37.503906 30.363281 37.503906 30.148438 C 37.503906 29.789062 37.222656 29.496094 36.871094 29.496094 C 36.523438 29.496094 36.238281 29.789062 36.238281 30.148438 C 36.238281 30.507812 36.523438 30.800781 36.871094 30.800781 C 36.898438 30.800781 36.921875 30.796875 36.945312 30.792969 C 36.945312 30.792969 36.945312 30.796875 36.949219 30.796875 C 37.347656 31.386719 37.777344 32.273438 38.207031 33.296875 C 37.769531 33.085938 36.871094 32.566406 36.214844 31.617188 C 36.28125 31.527344 36.320312 31.425781 36.320312 31.316406 C 36.320312 31.003906 36.007812 30.746094 35.621094 30.746094 C 35.234375 30.746094 34.921875 31.003906 34.921875 31.316406 C 34.921875 31.628906 35.234375 31.882812 35.621094 31.882812 C 35.746094 31.882812 35.863281 31.855469 35.964844 31.8125 C 36.910156 33.175781 38.292969 33.6875 38.355469 33.710938 C 38.363281 33.714844 38.371094 33.71875 38.378906 33.71875 C 38.765625 34.679688 39.148438 35.730469 39.5 36.757812 C 39.097656 36.632812 38.320312 36.332031 37.757812 35.789062 C 37.800781 35.714844 37.824219 35.628906 37.824219 35.539062 C 37.824219 35.21875 37.523438 34.957031 37.15625 34.957031 C 36.789062 34.957031 36.492188 35.21875 36.492188 35.539062 C 36.492188 35.863281 36.789062 36.125 37.15625 36.125 C 37.300781 36.125 37.429688 36.085938 37.535156 36.019531 C 38.28125 36.742188 39.339844 37.054688 39.628906 37.132812 C 39.980469 38.171875 40.296875 39.175781 40.554688 40.007812 C 39.988281 39.679688 39.109375 39.082031 38.851562 38.558594 C 38.957031 38.453125 39.027344 38.300781 39.027344 38.132812 C 39.027344 37.808594 38.769531 37.542969 38.449219 37.542969 C 38.132812 37.542969 37.875 37.804688 37.875 38.132812 C 37.875 38.460938 38.132812 38.726562 38.449219 38.726562 C 38.492188 38.726562 38.53125 38.722656 38.570312 38.714844 C 38.988281 39.523438 40.476562 40.335938 40.6875 40.449219 C 40.964844 41.355469 41.144531 42 41.195312 42.171875 C 40.558594 44.046875 40.164062 46.027344 39.933594 47.945312 C 39.316406 46.148438 37.667969 41.609375 35.890625 39.078125 C 35.886719 39.074219 35.867188 39.042969 35.828125 38.984375 C 35.859375 38.371094 35.839844 36.023438 34.011719 33.25 C 33.0625 31.804688 31.9375 30.363281 30.921875 29.292969 C 29.875 28.1875 29.1875 27.707031 28.878906 27.863281 C 28.5 28.050781 28.796875 28.734375 29.335938 29.972656 C 29.714844 30.84375 30.1875 31.929688 30.472656 33.003906 C 31.535156 37.003906 33.324219 39.171875 35.636719 39.277344 C 36.457031 40.449219 37.25 42.054688 37.925781 43.613281 L 35.917969 43.023438 C 35.386719 42.554688 33.535156 40.992188 31.5 40.320312 C 29.449219 39.644531 27.671875 39.386719 26.375 39.195312 C 26.175781 39.167969 25.992188 39.140625 25.816406 39.113281 C 25.710938 39.097656 25.609375 39.078125 25.515625 39.066406 C 24.691406 38.9375 24.273438 38.871094 24.125 39.109375 C 24.003906 39.292969 24.140625 39.539062 24.28125 39.761719 C 24.496094 40.082031 26.480469 42.933594 30.246094 44.253906 C 31.050781 44.535156 31.792969 44.640625 32.445312 44.640625 C 33.269531 44.640625 33.953125 44.472656 34.46875 44.289062 C 35.4375 43.9375 36 43.449219 36.058594 43.398438 L 38.089844 44 C 39.023438 46.207031 39.699219 48.238281 39.851562 48.707031 C 39.621094 51.042969 39.617188 53.257812 39.691406 55.039062 C 39.699219 55.175781 39.703125 55.308594 39.710938 55.441406 C 39.683594 55.511719 39.667969 55.5625 39.660156 55.578125 C 39.636719 55.652344 39.664062 55.730469 39.730469 55.769531 C 39.917969 59.113281 40.375 61.476562 40.378906 61.503906 C 40.394531 61.578125 40.460938 61.632812 40.539062 61.632812 C 40.546875 61.632812 40.558594 61.632812 40.570312 61.628906 C 40.65625 61.609375 40.710938 61.527344 40.695312 61.441406 C 40.6875 61.414062 40.210938 58.945312 40.035156 55.488281 C 40.257812 54.875 40.980469 52.929688 41.800781 51.097656 C 42.085938 50.984375 44.085938 50.15625 46.078125 48.195312 C 46.171875 48.25 46.285156 48.28125 46.40625 48.28125 C 46.757812 48.28125 47.046875 48.011719 47.046875 47.679688 C 47.046875 47.347656 46.757812 47.078125 46.40625 47.078125 C 46.054688 47.078125 45.769531 47.347656 45.769531 47.679688 C 45.769531 47.785156 45.796875 47.886719 45.851562 47.972656 C 44.289062 49.507812 42.683594 50.347656 42.003906 50.660156 C 42.339844 49.929688 42.691406 49.230469 43.023438 48.667969 C 43.070312 48.640625 43.101562 48.59375 43.101562 48.539062 C 43.132812 48.488281 43.164062 48.441406 43.191406 48.394531 C 43.574219 48.160156 46.445312 46.410156 48.066406 44.90625 C 48.179688 44.996094 48.320312 45.050781 48.472656 45.050781 C 48.824219 45.050781 49.109375 44.765625 49.109375 44.410156 C 49.109375 44.054688 48.824219 43.769531 48.472656 43.769531 C 48.125 43.769531 47.839844 44.054688 47.839844 44.410156 C 47.839844 44.492188 47.855469 44.566406 47.882812 44.640625 C 46.664062 45.777344 44.699219 47.074219 43.667969 47.722656 C 45.105469 45.824219 47.257812 43.484375 47.339844 43.394531 C 47.429688 43.441406 47.53125 43.46875 47.640625 43.46875 C 47.992188 43.46875 48.273438 43.199219 48.273438 42.867188 C 48.273438 42.535156 47.992188 42.265625 47.640625 42.265625 C 47.289062 42.265625 47.007812 42.535156 47.007812 42.867188 C 47.007812 42.980469 47.042969 43.089844 47.101562 43.179688 C 47.039062 43.25 46.363281 43.984375 45.53125 44.945312 C 45.660156 44.476562 45.867188 43.851562 46.128906 43.496094 C 46.132812 43.492188 46.136719 43.484375 46.136719 43.480469 C 46.164062 43.484375 46.191406 43.484375 46.222656 43.484375 C 46.5625 43.484375 46.839844 43.207031 46.839844 42.867188 C 46.839844 42.527344 46.5625 42.25 46.222656 42.25 C 45.882812 42.25 45.605469 42.527344 45.605469 42.867188 C 45.605469 43.066406 45.699219 43.238281 45.839844 43.351562 C 45.382812 44.015625 45.097656 45.34375 45.066406 45.484375 C 44.421875 46.246094 43.738281 47.082031 43.191406 47.828125 C 43.160156 47.871094 43.128906 47.914062 43.101562 47.957031 C 43.128906 47.398438 43.25 46.457031 43.683594 45.304688 C 44.007812 45.296875 44.269531 45.007812 44.269531 44.652344 C 44.269531 44.292969 44 44.003906 43.667969 44.003906 C 43.335938 44.003906 43.066406 44.292969 43.066406 44.652344 C 43.066406 44.898438 43.191406 45.109375 43.375 45.21875 C 42.742188 46.902344 42.757812 48.125 42.777344 48.457031 C 42.34375 49.179688 41.886719 50.117188 41.460938 51.074219 C 41.453125 50.730469 41.460938 50.277344 41.542969 49.851562 C 41.777344 49.785156 41.949219 49.566406 41.949219 49.308594 C 41.949219 48.996094 41.695312 48.738281 41.382812 48.738281 C 41.070312 48.738281 40.8125 48.996094 40.8125 49.308594 C 40.8125 49.5625 40.984375 49.777344 41.214844 49.851562 C 41.0625 50.714844 41.175781 51.640625 41.179688 51.679688 C 41.183594 51.6875 41.183594 51.695312 41.1875 51.703125 C 40.703125 52.832031 40.277344 53.925781 40 54.664062 C 39.941406 52.992188 39.957031 50.980469 40.160156 48.859375 C 40.195312 48.820312 40.210938 48.761719 40.191406 48.707031 C 40.191406 48.707031 40.1875 48.691406 40.179688 48.667969 C 40.390625 46.535156 40.796875 44.308594 41.511719 42.214844 Z M 48.070312 35.058594 C 46.671875 36.160156 45.09375 37.09375 44.265625 37.558594 C 44.554688 37.113281 46.316406 34.484375 48.566406 32.730469 C 51.101562 30.753906 53.566406 28.214844 54.726562 26.699219 C 54.050781 29.398438 49.832031 33.664062 48.070312 35.058594 Z M 46.050781 33.144531 C 47.289062 31.332031 48.636719 30.359375 51.179688 28.863281 C 52.523438 28.074219 53.53125 27.363281 54.1875 26.863281 C 52.957031 28.382812 50.695312 30.667969 48.371094 32.480469 C 46.050781 34.289062 44.242188 37.007812 43.984375 37.402344 C 44.21875 36.347656 45.050781 34.601562 46.050781 33.144531 Z M 51.222656 16.402344 C 50.757812 17.578125 49.808594 19.789062 48.652344 22.144531 C 47.816406 23.851562 46.199219 25.375 45.328125 26.117188 C 45.695312 25.515625 47.765625 22.078125 48.394531 20.523438 C 49.054688 18.882812 51.304688 15.683594 51.328125 15.648438 C 51.367188 15.597656 51.367188 15.523438 51.332031 15.46875 C 51.335938 15.472656 51.34375 15.472656 51.347656 15.476562 C 51.417969 15.53125 51.449219 15.828125 51.222656 16.402344 Z M 46.566406 20.175781 C 47.152344 18.734375 49.160156 17.058594 50.238281 16.160156 C 50.371094 16.050781 50.496094 15.949219 50.601562 15.859375 C 50.757812 15.722656 50.886719 15.632812 50.996094 15.574219 C 50.59375 16.144531 48.710938 18.878906 48.09375 20.40625 C 47.488281 21.917969 45.410156 25.367188 45.054688 25.953125 C 45.269531 24.453125 46.015625 21.519531 46.566406 20.175781 Z M 40.832031 23.917969 C 41.441406 25.851562 41.558594 28.609375 41.578125 29.972656 C 40.992188 28.769531 39.558594 25.703125 39.191406 23.742188 C 38.8125 21.722656 37.207031 18.914062 36.523438 17.777344 C 37.722656 18.859375 40.152344 21.75 40.832031 23.917969 Z M 37.765625 23.3125 C 37.707031 21.71875 36.980469 19.984375 36.449219 18.71875 C 36.261719 18.277344 36.058594 17.789062 35.984375 17.507812 C 36.300781 18.015625 38.445312 21.503906 38.875 23.800781 C 39.328125 26.195312 41.25 30.046875 41.519531 30.570312 C 38.398438 29.566406 37.871094 26.175781 37.765625 23.3125 Z M 30.753906 29.578125 C 31.753906 30.644531 32.816406 32.007812 33.746094 33.417969 C 35.179688 35.59375 35.460938 37.53125 35.503906 38.480469 C 34.785156 37.355469 33.207031 34.796875 32.019531 32.234375 C 31.277344 30.636719 30.625 29.605469 30.136719 28.953125 C 30.316406 29.125 30.523438 29.332031 30.753906 29.578125 Z M 30.777344 32.914062 C 30.488281 31.820312 30.011719 30.722656 29.628906 29.839844 C 29.363281 29.234375 29.039062 28.492188 29.023438 28.21875 C 29.148438 28.3125 30.261719 29.203125 31.730469 32.375 C 33.039062 35.191406 34.8125 38.003906 35.414062 38.9375 C 32.835938 38.640625 31.472656 35.523438 30.777344 32.914062 Z M 25.769531 39.421875 C 25.945312 39.445312 26.128906 39.472656 26.328125 39.503906 C 27.613281 39.691406 29.375 39.945312 31.398438 40.617188 C 32.890625 41.109375 34.320312 42.128906 35.140625 42.78125 C 34.242188 42.527344 32.609375 42.101562 31.066406 41.933594 C 29.046875 41.710938 25.320312 39.652344 24.632812 39.261719 C 24.847656 39.277344 25.167969 39.328125 25.464844 39.375 C 25.5625 39.390625 25.664062 39.40625 25.769531 39.421875 Z M 30.351562 43.941406 C 26.730469 42.671875 24.804688 39.953125 24.558594 39.585938 C 25.441406 40.085938 29 42.027344 31.03125 42.246094 C 33.089844 42.472656 35.320312 43.160156 35.679688 43.277344 C 35.117188 43.695312 33.128906 44.917969 30.351562 43.941406 Z M 30.351562 43.941406 " fill-opacity="1" fill-rule="nonzero"/></g><g fill="#37b182" fill-opacity="1"><g transform="translate(18.561288, 52.432432)"><g><path d="M 0.21875 0 L 4.046875 0 L 4.421875 -1.265625 L 4.359375 -1.265625 C 4.015625 -0.484375 3.28125 -0.109375 2.578125 -0.109375 L 0.9375 -0.109375 L 4.296875 -5.40625 L 0.625 -5.40625 L 0.34375 -4.265625 L 0.40625 -4.265625 C 0.734375 -5.046875 1.40625 -5.296875 2.109375 -5.296875 L 3.578125 -5.296875 Z M 0.21875 0 "/></g></g></g><g fill="#37b182" fill-opacity="1"><g transform="translate(23.192518, 52.432432)"><g><path d="M 0.21875 -0.859375 C 0.21875 0.078125 0.8125 0.109375 1.0625 0.109375 C 1.84375 0.109375 2.390625 -0.90625 2.671875 -1.5625 L 2.671875 -0.359375 C 2.671875 -0.09375 2.703125 0.109375 2.90625 0.109375 C 3.265625 0.109375 3.625 -0.359375 3.921875 -0.65625 L 3.875 -0.71875 C 3.671875 -0.484375 3.46875 -0.375 3.34375 -0.375 C 3.265625 -0.375 3.21875 -0.421875 3.21875 -0.515625 L 3.21875 -2.828125 C 3.21875 -3.09375 3.21875 -3.421875 3.625 -3.421875 L 3.625 -3.484375 L 2.578125 -3.484375 C 1.34375 -3.484375 0.21875 -1.984375 0.21875 -0.859375 Z M 0.671875 -0.890625 C 0.671875 -2.21875 1.65625 -3.375 2.484375 -3.375 L 2.671875 -3.375 L 2.671875 -1.828125 C 2.453125 -1.265625 1.90625 -0.140625 1.1875 -0.140625 C 0.90625 -0.140625 0.671875 -0.515625 0.671875 -0.890625 Z M 0.671875 -0.890625 "/></g></g></g><g fill="#37b182" fill-opacity="1"><g transform="translate(27.105854, 52.432432)"><g><path d="M 0.453125 -5.453125 C 0.546875 -5.453125 0.546875 -5.359375 0.546875 -5.21875 L 0.546875 -0.796875 C 0.546875 -0.53125 0.546875 -0.0625 0.140625 -0.0625 L 0.140625 0 L 1.5 0 L 1.5 -0.0625 C 1.09375 -0.0625 1.09375 -0.53125 1.09375 -0.796875 L 1.09375 -2.515625 C 1.28125 -2.75 1.875 -3.390625 2.578125 -3.390625 C 2.984375 -3.390625 2.984375 -2.9375 2.984375 -2.671875 L 2.984375 -0.375 C 2.984375 -0.109375 3.015625 0.109375 3.21875 0.109375 C 3.578125 0.109375 3.9375 -0.375 4.234375 -0.65625 L 4.1875 -0.71875 C 3.984375 -0.484375 3.78125 -0.375 3.65625 -0.375 C 3.578125 -0.375 3.53125 -0.421875 3.53125 -0.515625 L 3.53125 -2.5625 C 3.53125 -3.078125 3.453125 -3.59375 2.828125 -3.59375 C 2.1875 -3.59375 1.5625 -3.171875 1.09375 -2.6875 L 1.09375 -5.46875 C 1.09375 -5.6875 0.96875 -5.765625 0.875 -5.765625 C 0.8125 -5.765625 0.703125 -5.65625 0.375 -5.53125 C 0.1875 -5.453125 0.03125 -5.40625 -0.140625 -5.40625 L -0.140625 -5.34375 C 0.078125 -5.34375 0.359375 -5.453125 0.453125 -5.453125 Z M 0.453125 -5.453125 "/></g></g></g><g fill="#37b182" fill-opacity="1"><g transform="translate(31.332256, 52.432432)"><g><path d="M 1.46875 0 L 1.46875 -0.0625 C 1.0625 -0.0625 1.0625 -0.53125 1.0625 -0.796875 L 1.0625 -1.71875 C 1.0625 -1.71875 1.25 -3.15625 2.46875 -3.15625 C 2.84375 -3.15625 3.03125 -2.890625 3.03125 -2.671875 L 3.09375 -2.671875 L 3.09375 -3.5 C 3.09375 -3.5 2.953125 -3.59375 2.65625 -3.59375 C 1.984375 -3.59375 1.3125 -2.90625 1.0625 -2.03125 L 1.0625 -3.296875 C 1.0625 -3.515625 1.015625 -3.59375 0.921875 -3.59375 C 0.84375 -3.59375 0.75 -3.46875 0.59375 -3.359375 C 0.453125 -3.25 0.234375 -3.15625 0.109375 -3.15625 L 0.109375 -3.09375 C 0.3125 -3.09375 0.359375 -3.140625 0.453125 -3.140625 C 0.515625 -3.140625 0.515625 -3.046875 0.515625 -2.90625 L 0.515625 -0.796875 C 0.515625 -0.53125 0.515625 -0.0625 0.109375 -0.0625 L 0.109375 0 Z M 1.46875 0 "/></g></g></g><g fill="#37b182" fill-opacity="1"><g transform="translate(34.533098, 52.432432)"><g><path d="M 0.21875 -0.859375 C 0.21875 0.078125 0.8125 0.109375 1.0625 0.109375 C 1.84375 0.109375 2.390625 -0.90625 2.671875 -1.5625 L 2.671875 -0.359375 C 2.671875 -0.09375 2.703125 0.109375 2.90625 0.109375 C 3.265625 0.109375 3.625 -0.359375 3.921875 -0.65625 L 3.875 -0.71875 C 3.671875 -0.484375 3.46875 -0.375 3.34375 -0.375 C 3.265625 -0.375 3.21875 -0.421875 3.21875 -0.515625 L 3.21875 -2.828125 C 3.21875 -3.09375 3.21875 -3.421875 3.625 -3.421875 L 3.625 -3.484375 L 2.578125 -3.484375 C 1.34375 -3.484375 0.21875 -1.984375 0.21875 -0.859375 Z M 0.671875 -0.890625 C 0.671875 -2.21875 1.65625 -3.375 2.484375 -3.375 L 2.671875 -3.375 L 2.671875 -1.828125 C 2.453125 -1.265625 1.90625 -0.140625 1.1875 -0.140625 C 0.90625 -0.140625 0.671875 -0.515625 0.671875 -0.890625 Z M 0.671875 -0.890625 "/></g></g></g><g fill="#37b182" fill-opacity="1"><g transform="translate(18.561288, 59.839803)"><g><path d="M 1.578125 0 L 1.578125 -0.0625 C 1.171875 -0.0625 1.171875 -0.53125 1.171875 -0.796875 L 1.171875 -3.1875 L 1.84375 -3.1875 C 2.890625 -3.1875 3.46875 -3.25 3.65625 -2.703125 L 3.71875 -2.703125 L 3.9375 -3.296875 L 1.171875 -3.296875 L 1.171875 -5.296875 L 3.21875 -5.296875 C 3.84375 -5.296875 4.375 -5.078125 4.375 -4.5625 L 4.4375 -4.5625 L 4.4375 -5.40625 L 0.21875 -5.40625 L 0.21875 -5.34375 C 0.625 -5.34375 0.625 -4.875 0.625 -4.609375 L 0.625 -0.796875 C 0.625 -0.53125 0.625 -0.0625 0.21875 -0.0625 L 0.21875 0 Z M 1.578125 0 "/></g></g></g><g fill="#37b182" fill-opacity="1"><g transform="translate(23.203317, 59.839803)"><g><path d="M 0.21875 -0.859375 C 0.21875 0.078125 0.8125 0.109375 1.0625 0.109375 C 1.84375 0.109375 2.390625 -0.90625 2.671875 -1.5625 L 2.671875 -0.359375 C 2.671875 -0.09375 2.703125 0.109375 2.90625 0.109375 C 3.265625 0.109375 3.625 -0.359375 3.921875 -0.65625 L 3.875 -0.71875 C 3.671875 -0.484375 3.46875 -0.375 3.34375 -0.375 C 3.265625 -0.375 3.21875 -0.421875 3.21875 -0.515625 L 3.21875 -2.828125 C 3.21875 -3.09375 3.21875 -3.421875 3.625 -3.421875 L 3.625 -3.484375 L 2.578125 -3.484375 C 1.34375 -3.484375 0.21875 -1.984375 0.21875 -0.859375 Z M 0.671875 -0.890625 C 0.671875 -2.21875 1.65625 -3.375 2.484375 -3.375 L 2.671875 -3.375 L 2.671875 -1.828125 C 2.453125 -1.265625 1.90625 -0.140625 1.1875 -0.140625 C 0.90625 -0.140625 0.671875 -0.515625 0.671875 -0.890625 Z M 0.671875 -0.890625 "/></g></g></g><g fill="#37b182" fill-opacity="1"><g transform="translate(27.116654, 59.839803)"><g><path d="M 1.46875 0 L 1.46875 -0.0625 C 1.0625 -0.0625 1.0625 -0.53125 1.0625 -0.796875 L 1.0625 -1.71875 C 1.0625 -1.71875 1.25 -3.15625 2.46875 -3.15625 C 2.84375 -3.15625 3.03125 -2.890625 3.03125 -2.671875 L 3.09375 -2.671875 L 3.09375 -3.5 C 3.09375 -3.5 2.953125 -3.59375 2.65625 -3.59375 C 1.984375 -3.59375 1.3125 -2.90625 1.0625 -2.03125 L 1.0625 -3.296875 C 1.0625 -3.515625 1.015625 -3.59375 0.921875 -3.59375 C 0.84375 -3.59375 0.75 -3.46875 0.59375 -3.359375 C 0.453125 -3.25 0.234375 -3.15625 0.109375 -3.15625 L 0.109375 -3.09375 C 0.3125 -3.09375 0.359375 -3.140625 0.453125 -3.140625 C 0.515625 -3.140625 0.515625 -3.046875 0.515625 -2.90625 L 0.515625 -0.796875 C 0.515625 -0.53125 0.515625 -0.0625 0.109375 -0.0625 L 0.109375 0 Z M 1.46875 0 "/></g></g></g><g fill="#37b182" fill-opacity="1"><g transform="translate(30.317495, 59.839803)"><g><path d="M 0.21875 -0.859375 C 0.21875 0.078125 0.8125 0.109375 1.0625 0.109375 C 1.84375 0.109375 2.390625 -0.90625 2.671875 -1.5625 L 2.671875 -0.359375 C 2.671875 -0.09375 2.703125 0.109375 2.90625 0.109375 C 3.265625 0.109375 3.625 -0.359375 3.921875 -0.65625 L 3.875 -0.71875 C 3.671875 -0.484375 3.46875 -0.375 3.34375 -0.375 C 3.265625 -0.375 3.21875 -0.421875 3.21875 -0.515625 L 3.21875 -2.828125 C 3.21875 -3.09375 3.21875 -3.421875 3.625 -3.421875 L 3.625 -3.484375 L 2.578125 -3.484375 C 1.34375 -3.484375 0.21875 -1.984375 0.21875 -0.859375 Z M 0.671875 -0.890625 C 0.671875 -2.21875 1.65625 -3.375 2.484375 -3.375 L 2.671875 -3.375 L 2.671875 -1.828125 C 2.453125 -1.265625 1.90625 -0.140625 1.1875 -0.140625 C 0.90625 -0.140625 0.671875 -0.515625 0.671875 -0.890625 Z M 0.671875 -0.890625 "/></g></g></g><g fill="#37b182" fill-opacity="1"><g transform="translate(34.230831, 59.839803)"><g><path d="M 0.109375 2.09375 C 0.171875 2.140625 0.3125 2.15625 0.390625 2.15625 C 1.125 2.15625 1.46875 1.515625 1.46875 0.75 L 1.46875 -3.296875 C 1.46875 -3.515625 1.421875 -3.59375 1.328125 -3.59375 C 1.25 -3.59375 1.171875 -3.46875 1.015625 -3.359375 C 0.859375 -3.25 0.65625 -3.15625 0.515625 -3.15625 L 0.515625 -3.09375 C 0.71875 -3.09375 0.765625 -3.140625 0.859375 -3.140625 C 0.9375 -3.140625 0.9375 -3.046875 0.9375 -2.90625 L 0.9375 0.84375 C 0.9375 1.75 0.640625 2.046875 0.296875 2.046875 C 0.234375 2.046875 0.171875 2.046875 0.125 2.03125 Z M 0.859375 -3.875 C 0.921875 -3.828125 0.984375 -3.796875 1.0625 -3.796875 C 1.15625 -3.796875 1.28125 -3.84375 1.375 -3.953125 C 1.546875 -4.109375 1.5625 -4.3125 1.421875 -4.453125 C 1.375 -4.515625 1.3125 -4.53125 1.234375 -4.53125 C 1.125 -4.53125 1.015625 -4.484375 0.921875 -4.390625 C 0.75 -4.21875 0.734375 -4.015625 0.859375 -3.875 Z M 0.859375 -3.875 "/></g></g></g><g fill="#37b182" fill-opacity="1"><g transform="translate(36.066054, 59.839803)"><g><path d="M 0.109375 0 L 1.46875 0 L 1.46875 -0.0625 C 1.0625 -0.0625 1.0625 -0.53125 1.0625 -0.796875 L 1.0625 -3.296875 C 1.0625 -3.515625 1.015625 -3.59375 0.921875 -3.59375 C 0.84375 -3.59375 0.75 -3.46875 0.59375 -3.359375 C 0.453125 -3.25 0.234375 -3.15625 0.109375 -3.15625 L 0.109375 -3.09375 C 0.3125 -3.09375 0.359375 -3.140625 0.453125 -3.140625 C 0.515625 -3.140625 0.515625 -3.046875 0.515625 -2.90625 L 0.515625 -0.796875 C 0.515625 -0.53125 0.515625 -0.0625 0.109375 -0.0625 Z M 0.453125 -3.875 C 0.515625 -3.828125 0.578125 -3.796875 0.65625 -3.796875 C 0.75 -3.796875 0.859375 -3.84375 0.96875 -3.953125 C 1.125 -4.109375 1.15625 -4.3125 1.015625 -4.453125 C 0.96875 -4.515625 0.890625 -4.53125 0.828125 -4.53125 C 0.71875 -4.53125 0.609375 -4.484375 0.515625 -4.390625 C 0.34375 -4.21875 0.3125 -4.015625 0.453125 -3.875 Z M 0.453125 -3.875 "/></g></g></g></svg>